<svg xmlns="http://www.w3.org/2000/svg" width="272" height="100" viewBox="0 0 272 100">
    <g fill="none" fill-rule="evenodd">
        <path stroke="#C4D7F2" stroke-dasharray="3.824775943756104,3.824775943756104" stroke-width="1.9" d="M224.279 90.988C198.962 95 193.486 105 176.63 76.502c-16.855-28.497-23.02-22.688-32.531-22.688-33.435 0-33.952 36.119-15.422 39.994 18.53 3.876 36.69-25.884 31.229-49.248-5.462-23.364-33.033-45.286-77.981-43.503C45.39 2.504 8.99 32.748-.324 41.036"/>
        <path fill="#00B9F5" d="M203.492 62.982L271.92 51.89l-51.185 20.112z"/>
        <path fill="#002E6E" d="M271.92 51.89L220.737 72l5.712 17.194z"/>
        <path fill="#00B9F5" d="M271.92 51.89l-41.867 24.712 12.814 22.78z"/>
        <path fill="#002E6E" d="M226.448 89.195l3.605-12.593 3.709 6.59z"/>
    </g>
</svg>
